# xmcd
#
# Track frame offsets: 
#        150
#        38887
#        57637
#        69550
#        81562
#        90712
#        112550
#        138350
#        152662
#        162337
#
# Disc length: 2416 seconds
#
# Revision: 0
# Processed by: cddbd v1.5.2PL0 Copyright (c) Steve Scherf et al.
# Submitted via: ExactAudioCopy v1.0b1
#
DISCID=81096e0a
DTITLE=譚志斌 - 中國舞曲音樂
DYEAR=1994
DGENRE=中樂
TTITLE0=春江花月夜
TTITLE1=朝鮮舞曲
TTITLE2=夜深沉
TTITLE3=西藏舞曲
TTITLE4=天山南北好風光
TTITLE5=弓舞
TTITLE6=舞曲
TTITLE7=快樂的囉嗉
TTITLE8=採茶撲蝶
TTITLE9=荷花舞曲
EXTD=
EXTT0=
EXTT1=
EXTT2=
EXTT3=
EXTT4=
EXTT5=
EXTT6=
EXTT7=
EXTT8=
EXTT9=
PLAYORDER=
